<?xml version="1.0" encoding="UTF-8" standalone="no"?>
<!DOCTYPE svg PUBLIC "-//W3C//DTD SVG 1.1//EN" "http://www.w3.org/Graphics/SVG/1.1/DTD/svg11.dtd">
<svg width="100%" height="100%" viewBox="0 0 28 28" version="1.1" xmlns="http://www.w3.org/2000/svg" xmlns:xlink="http://www.w3.org/1999/xlink" xml:space="preserve" xmlns:serif="http://www.serif.com/" style="fill-rule:evenodd;clip-rule:evenodd;stroke-linejoin:round;stroke-miterlimit:2;">
    <path d="M13.958,0C6.24,0 0,6.351 0,14.207C0,20.487 3.998,25.803 9.544,27.685C10.238,27.826 10.492,27.379 10.492,27.003C10.492,26.673 10.469,25.544 10.469,24.368C6.586,25.215 5.777,22.674 5.777,22.674C5.153,21.028 4.229,20.605 4.229,20.605C2.958,19.735 4.321,19.735 4.321,19.735C5.731,19.829 6.471,21.193 6.471,21.193C7.719,23.357 9.729,22.745 10.538,22.369C10.653,21.452 11.023,20.816 11.416,20.464C8.319,20.134 5.061,18.911 5.061,13.454C5.061,11.902 5.615,10.632 6.494,9.644C6.355,9.291 5.87,7.832 6.633,5.88C6.633,5.88 7.811,5.504 10.469,7.339C11.606,7.028 12.78,6.87 13.958,6.868C15.137,6.868 16.338,7.033 17.448,7.339C20.105,5.504 21.284,5.88 21.284,5.88C22.047,7.832 21.561,9.291 21.423,9.644C22.324,10.632 22.855,11.902 22.855,13.454C22.855,18.911 19.597,20.111 16.477,20.464C16.986,20.911 17.425,21.757 17.425,23.098C17.425,25.003 17.402,26.532 17.402,27.002C17.402,27.379 17.656,27.826 18.349,27.685C23.895,25.803 27.893,20.487 27.893,14.207C27.916,6.351 21.654,0 13.958,0Z"/>
</svg>
