<?xml version="1.0" encoding="UTF-8" standalone="no"?>
<!DOCTYPE svg PUBLIC "-//W3C//DTD SVG 1.1//EN" "http://www.w3.org/Graphics/SVG/1.1/DTD/svg11.dtd">
<svg width="100%" height="100%" viewBox="0 0 24 24" version="1.1" xmlns="http://www.w3.org/2000/svg" xmlns:xlink="http://www.w3.org/1999/xlink" xml:space="preserve" xmlns:serif="http://www.serif.com/" style="fill-rule:evenodd;clip-rule:evenodd;stroke-linejoin:round;stroke-miterlimit:2;">
    <path d="M2.667,24C1.194,24 0,22.806 0,21.333L0,2.667C0,1.194 1.194,0 2.667,0L21.333,0C22.806,0 24,1.194 24,2.667L24,21.333C24,22.806 22.806,24 21.333,24L2.667,24ZM20.667,20.667L20.667,13.35C20.667,10.255 18.912,8.758 16.461,8.758C14.009,8.758 12.977,10.668 12.977,10.668L12.977,9.111L9.545,9.111L9.545,20.667L12.977,20.667L12.977,14.601C12.977,12.975 13.725,12.008 15.157,12.008C16.474,12.008 17.106,12.938 17.106,14.601L17.106,20.667L20.667,20.667ZM5.45,7.598C6.619,7.598 7.566,6.643 7.566,5.466C7.566,4.288 6.619,3.333 5.45,3.333C4.281,3.333 3.334,4.288 3.334,5.466C3.334,6.643 4.281,7.598 5.45,7.598ZM3.678,20.667L7.257,20.667L7.257,9.111L3.678,9.111L3.678,20.667Z"/>
</svg>
